<svg width="321" height="225" viewBox="0 0 321 225" fill="none" xmlns="http://www.w3.org/2000/svg">
<path d="M276.672 104.528H261.658C260.876 104.528 260.486 104.186 260.486 103.503L260.339 1.32971C260.339 0.548462 260.73 0.157837 261.511 0.157837H270.446C273.246 0.157837 275.776 1.82617 276.88 4.39944L286.525 26.8951C289.543 33.936 300.054 31.7084 299.958 24.0482L299.67 1.32971C299.67 0.548462 300.11 0.157837 300.989 0.157837H315.857C316.443 0.157837 316.736 0.548462 316.736 1.32971L316.882 103.649C316.882 104.235 316.638 104.528 316.15 104.528H307.408C304.697 104.528 302.229 102.963 301.074 100.51L290.965 79.0376C287.747 72.2025 277.48 74.6085 277.633 82.1617L278.064 103.356C278.064 104.137 277.6 104.528 276.672 104.528Z" fill="white"/>
<path d="M246.57 104.528H229.578C229.089 104.528 228.845 104.284 228.845 103.796L228.992 0.743774C228.992 0.353149 229.187 0.157837 229.578 0.157837H246.423C246.814 0.157837 247.009 0.353149 247.009 0.743774L247.156 103.796C247.156 104.284 246.96 104.528 246.57 104.528Z" fill="white"/>
<path d="M166.516 104.528H148.352C147.913 104.528 147.668 104.284 147.62 103.796L129.895 0.743774C129.797 0.353149 129.944 0.157837 130.334 0.157837H147.18C147.571 0.157837 147.815 0.353149 147.913 0.743774L150.681 20.2894C151.815 28.2968 163.37 28.3213 164.538 20.3187L167.395 0.743774C167.493 0.353149 167.786 0.157837 168.274 0.157837H181.824C182.214 0.157837 182.458 0.353149 182.556 0.743774L185.369 20.3042C186.52 28.3092 198.075 28.3092 199.226 20.3042L202.039 0.743774C202.136 0.353149 202.38 0.157837 202.771 0.157837H219.47C219.958 0.157837 220.154 0.353149 220.056 0.743774L202.185 103.796C202.136 103.991 201.99 104.162 201.746 104.308V104.308C201.555 104.451 201.324 104.528 201.086 104.528H183.289C183.201 104.528 183.118 104.506 183.039 104.463C182.551 104.193 182.516 103.517 182.437 102.965L181.829 98.7022C180.683 90.6834 169.103 90.6911 167.968 98.7114L167.249 103.796C167.2 104.284 166.956 104.528 166.516 104.528Z" fill="white"/>
<path d="M94.4458 104.381L67.5659 104.528C67.0776 104.528 66.8335 104.284 66.8335 103.796L67.1265 0.743787C67.1265 0.353162 67.3218 0.15785 67.7124 0.15785L95.7642 0.0113652C101.331 -0.135119 106.36 1.13441 110.852 3.81996C115.393 6.50551 119.006 10.1432 121.692 14.733C124.426 19.2741 125.793 24.3034 125.793 29.8209V72.8873C125.793 78.6491 124.402 83.9225 121.619 88.7077C118.787 93.444 115.027 97.2282 110.339 100.06C105.652 102.843 100.354 104.284 94.4458 104.381ZM95.7642 17.9557L92.1778 18.0059C88.3562 18.0593 85.2839 21.1682 85.2757 24.9901L85.1592 79.0559C85.1508 82.9277 88.2873 86.0709 92.1591 86.0709H94.4458C98.1567 86.0709 101.282 84.777 103.821 82.1891C106.36 79.6012 107.629 76.5006 107.629 72.8873V29.6745C107.629 26.5006 106.458 23.7418 104.114 21.3981C101.77 19.0055 98.9868 17.858 95.7642 17.9557Z" fill="white"/>
<path d="M52.9175 104.528H4.43115C4.04053 104.528 3.84521 104.284 3.84521 103.796L3.9917 0.743774C3.9917 0.353149 4.18701 0.157837 4.57764 0.157837H52.771C53.1616 0.157837 53.3569 0.401978 53.3569 0.890259V17.6627C53.3569 18.0533 53.1616 18.2487 52.771 18.2487H29.0093C25.1433 18.2487 22.0093 21.3827 22.0093 25.2487V34.6862C22.0093 38.5522 25.1433 41.6862 29.0093 41.6862H52.771C53.1616 41.6862 53.3569 41.8815 53.3569 42.2721L53.5034 59.2643C53.5034 59.6549 53.3081 59.8502 52.9175 59.8502H29.0093C25.1433 59.8502 22.0093 62.9842 22.0093 66.8502V79.0709C22.0093 82.9369 25.1433 86.0709 29.0093 86.0709H52.9175C53.3081 86.0709 53.5034 86.3151 53.5034 86.8033V103.942C53.5034 104.333 53.3081 104.528 52.9175 104.528Z" fill="white"/>
<path d="M320.142 222.583H271.655C271.265 222.583 271.069 222.339 271.069 221.85L271.216 118.798C271.216 118.408 271.411 118.213 271.802 118.213H319.995C320.386 118.213 320.581 118.457 320.581 118.945V135.717C320.581 136.108 320.386 136.303 319.995 136.303H296.233C292.367 136.303 289.233 139.437 289.233 143.303V152.741C289.233 156.607 292.367 159.741 296.233 159.741H319.995C320.386 159.741 320.581 159.936 320.581 160.327L320.728 177.319C320.728 177.71 320.532 177.905 320.142 177.905H296.233C292.367 177.905 289.233 181.039 289.233 184.905V197.126C289.233 200.992 292.367 204.126 296.233 204.126H320.142C320.532 204.126 320.728 204.37 320.728 204.858V221.997C320.728 222.387 320.532 222.583 320.142 222.583Z" fill="white"/>
<path d="M231.006 224.047C225.586 224.047 220.703 222.705 216.357 220.019C211.963 217.334 208.423 213.72 205.737 209.179C203.101 204.638 201.782 199.56 201.782 193.945V146.411C201.782 140.942 203.125 135.962 205.811 131.469C208.447 126.928 211.987 123.315 216.431 120.63C220.874 117.895 225.732 116.528 231.006 116.528C236.523 116.528 241.504 117.846 245.947 120.483C250.391 123.169 253.906 126.757 256.494 131.25C259.131 135.742 260.449 140.796 260.449 146.411V153.296C260.449 153.686 260.205 153.881 259.717 153.881H242.871C242.48 153.881 242.285 153.686 242.285 153.296V147.583C242.285 143.774 241.211 140.625 239.062 138.134C236.914 135.644 234.229 134.399 231.006 134.399C228.125 134.399 225.562 135.595 223.315 137.988C221.069 140.38 219.946 143.188 219.946 146.411V193.945C219.946 197.216 221.045 200.048 223.242 202.441C225.439 204.785 228.027 205.957 231.006 205.957C234.229 205.957 236.914 204.809 239.062 202.514C241.211 200.171 242.285 197.314 242.285 193.945V193.547C242.285 189.681 239.151 186.547 235.285 186.547H231.812C231.274 186.547 231.006 186.303 231.006 185.815V169.043C231.006 168.554 231.274 168.31 231.812 168.31H259.863C260.254 168.31 260.449 168.554 260.449 169.043V193.945C260.449 199.56 259.131 204.638 256.494 209.179C253.809 213.72 250.269 217.334 245.874 220.019C241.479 222.705 236.523 224.047 231.006 224.047Z" fill="white"/>
<path d="M150.293 222.583H135.278C134.497 222.583 134.106 222.241 134.106 221.557L133.96 119.384C133.96 118.603 134.351 118.213 135.132 118.213H144.067C146.866 118.213 149.397 119.881 150.5 122.454L160.145 144.95C163.164 151.991 173.675 149.763 173.578 142.103L173.291 119.384C173.291 118.603 173.73 118.213 174.609 118.213H189.478C190.063 118.213 190.356 118.603 190.356 119.384L190.503 221.704C190.503 222.29 190.259 222.583 189.771 222.583H181.028C178.317 222.583 175.85 221.017 174.695 218.564L164.585 197.092C161.367 190.257 151.1 192.663 151.254 200.216L151.685 221.411C151.685 222.192 151.221 222.583 150.293 222.583Z" fill="white"/>
<path d="M65.0707 222.435C64.7783 222.138 64.9298 221.644 65.0039 221.233L83.4961 118.798C83.5938 118.408 83.8379 118.213 84.2285 118.213H105.981C106.372 118.213 106.616 118.408 106.714 118.798L124.585 221.85C124.634 222.339 124.438 222.583 123.999 222.583H107.373C106.885 222.583 106.616 222.339 106.567 221.85L105.834 216.848C105.33 213.411 102.381 210.864 98.9078 210.864H90.5697C87.0961 210.864 84.1479 213.411 83.6438 216.848L82.9102 221.85C82.8613 222.339 82.6172 222.583 82.1777 222.583H65.4785C65.3033 222.583 65.1673 222.534 65.0707 222.435ZM94.2627 152.71L88.6721 187.651C88.0699 191.415 90.9771 194.824 94.7884 194.824V194.824C98.5657 194.824 101.463 191.472 100.917 187.734L95.8008 152.71V152.71C95.6605 151.821 94.3685 151.816 94.2627 152.71V152.71Z" fill="white"/>
<path d="M29.3701 224.047C23.8525 224.047 18.8477 222.729 14.3555 220.092C9.91211 217.456 6.39648 213.818 3.80859 209.179C1.26953 204.492 0 199.267 0 193.505V186.547C0 186.157 0.195312 185.962 0.585938 185.962H17.5781C17.9688 185.962 18.1641 186.23 18.1641 186.767V193.505C18.1641 197.168 19.2139 200.171 21.3135 202.514C23.4131 204.809 26.0986 205.957 29.3701 205.957C32.3975 205.957 35.0098 204.712 37.207 202.221C39.4043 199.682 40.5029 196.777 40.5029 193.505V118.945C40.5029 118.554 40.6982 118.359 41.0889 118.359H57.9346C58.3252 118.359 58.5205 118.603 58.5205 119.091L58.667 193.505C58.667 198.974 57.3486 204.028 54.7119 208.667C52.0264 213.354 48.4863 217.089 44.0918 219.873C39.6973 222.656 34.79 224.047 29.3701 224.047Z" fill="white"/>
</svg>
