<svg width="644" height="637" viewBox="0 0 644 637" fill="none" xmlns="http://www.w3.org/2000/svg">
<mask id="path-1-inside-1_3_175" fill="white">
<path fill-rule="evenodd" clip-rule="evenodd" d="M220.78 237.09L183.924 254.75C163.097 264.73 138.88 250.036 138.114 226.955L136.573 180.567C135.806 157.486 158.995 141.218 180.437 149.793L210.847 161.954C207.866 129.042 231.362 99.3432 264.429 94.9473L339.988 84.9025C367.607 81.2308 393.393 96.3435 404.474 120.389C408.265 121.108 412.056 122.407 415.751 124.346L448.003 141.271C475.269 155.579 476.821 194.038 450.797 210.497L420.013 229.966C419.897 230.039 419.781 230.111 419.665 230.183C417.028 249.888 405.002 267.111 387.705 276.47L423.533 545.973C427.817 578.197 405.167 607.792 372.944 612.076C340.72 616.36 311.125 593.71 306.841 561.486L271.135 292.905C245.557 288.078 224.803 267.348 221.185 240.136L220.78 237.09Z"/>
</mask>
<path fill-rule="evenodd" clip-rule="evenodd" d="M220.78 237.09L183.924 254.75C163.097 264.73 138.88 250.036 138.114 226.955L136.573 180.567C135.806 157.486 158.995 141.218 180.437 149.793L210.847 161.954C207.866 129.042 231.362 99.3432 264.429 94.9473L339.988 84.9025C367.607 81.2308 393.393 96.3435 404.474 120.389C408.265 121.108 412.056 122.407 415.751 124.346L448.003 141.271C475.269 155.579 476.821 194.038 450.797 210.497L420.013 229.966C419.897 230.039 419.781 230.111 419.665 230.183C417.028 249.888 405.002 267.111 387.705 276.47L423.533 545.973C427.817 578.197 405.167 607.792 372.944 612.076C340.72 616.36 311.125 593.71 306.841 561.486L271.135 292.905C245.557 288.078 224.803 267.348 221.185 240.136L220.78 237.09Z" fill="url(#paint0_linear_3_175)"/>
<path d="M220.78 237.09L230.693 235.772L228.878 222.121L216.459 228.072L220.78 237.09ZM183.924 254.75L188.245 263.769L188.245 263.769L183.924 254.75ZM138.114 226.955L148.108 226.623L148.108 226.623L138.114 226.955ZM136.573 180.567L126.578 180.899L126.578 180.899L136.573 180.567ZM180.437 149.793L176.724 159.078L176.724 159.078L180.437 149.793ZM210.847 161.954L207.134 171.239L222.277 177.295L220.806 161.052L210.847 161.954ZM264.429 94.9473L265.747 104.86L265.747 104.86L264.429 94.9473ZM339.988 84.9025L338.67 74.9897L338.67 74.9897L339.988 84.9025ZM404.474 120.389L395.392 124.574L397.548 129.253L402.61 130.214L404.474 120.389ZM415.751 124.346L420.397 115.491L420.397 115.491L415.751 124.346ZM448.003 141.271L443.357 150.126L443.357 150.126L448.003 141.271ZM450.797 210.497L445.452 202.045L445.452 202.045L450.797 210.497ZM420.013 229.966L425.357 238.418L425.358 238.417L420.013 229.966ZM419.665 230.183L414.402 221.681L410.381 224.17L409.754 228.857L419.665 230.183ZM387.705 276.47L382.946 267.675L376.884 270.955L377.792 277.788L387.705 276.47ZM423.533 545.973L433.446 544.655L433.446 544.655L423.533 545.973ZM372.944 612.076L371.626 602.163L371.626 602.163L372.944 612.076ZM306.841 561.486L316.754 560.168L316.754 560.168L306.841 561.486ZM271.135 292.905L281.048 291.587L280.095 284.419L272.99 283.078L271.135 292.905ZM221.185 240.136L231.098 238.818L231.098 238.818L221.185 240.136ZM216.459 228.072L179.603 245.732L188.245 263.769L225.101 246.108L216.459 228.072ZM179.603 245.732C165.285 252.593 148.635 242.491 148.108 226.623L128.119 227.287C129.126 257.58 160.91 276.866 188.245 263.769L179.603 245.732ZM148.108 226.623L146.567 180.235L126.578 180.899L128.119 227.287L148.108 226.623ZM146.567 180.235C146.04 164.367 161.982 153.182 176.724 159.078L184.151 140.508C156.007 129.253 125.572 150.606 126.578 180.899L146.567 180.235ZM176.724 159.078L207.134 171.239L214.56 152.669L184.151 140.508L176.724 159.078ZM263.111 85.0345C224.709 90.1398 197.426 124.628 200.888 162.856L220.806 161.052C218.307 133.456 238.016 108.547 265.747 104.86L263.111 85.0345ZM338.67 74.9897L263.111 85.0345L265.747 104.86L341.305 94.8153L338.67 74.9897ZM413.556 116.204C400.692 88.2881 370.759 70.7238 338.67 74.9897L341.305 94.8153C364.455 91.7378 386.095 104.399 395.392 124.574L413.556 116.204ZM420.397 115.491C415.83 113.094 411.101 111.468 406.338 110.564L402.61 130.214C405.428 130.749 408.282 131.72 411.104 133.2L420.397 115.491ZM452.65 132.416L420.397 115.491L411.104 133.2L443.357 150.126L452.65 132.416ZM456.142 218.948C488.672 198.375 486.732 150.301 452.65 132.416L443.357 150.126C463.806 160.857 464.97 189.701 445.452 202.045L456.142 218.948ZM425.358 238.417L456.142 218.948L445.452 202.045L414.668 221.514L425.358 238.417ZM424.929 238.686C425.072 238.597 425.214 238.508 425.357 238.418L414.669 221.514C414.58 221.57 414.491 221.625 414.402 221.681L424.929 238.686ZM392.464 285.265C412.55 274.397 426.512 254.412 429.577 231.51L409.754 228.857C407.545 245.365 397.454 259.826 382.946 267.675L392.464 285.265ZM433.446 544.655L397.618 275.152L377.792 277.788L413.62 547.291L433.446 544.655ZM374.261 621.989C411.96 616.977 438.458 582.354 433.446 544.655L413.62 547.291C417.176 574.04 398.375 598.607 371.626 602.163L374.261 621.989ZM296.928 562.804C301.94 600.502 336.563 627 374.261 621.989L371.626 602.163C344.877 605.719 320.31 586.917 316.754 560.168L296.928 562.804ZM261.223 294.222L296.928 562.804L316.754 560.168L281.048 291.587L261.223 294.222ZM211.272 241.453C215.475 273.07 239.588 297.129 269.281 302.731L272.99 283.078C251.525 279.028 234.13 261.626 231.098 238.818L211.272 241.453ZM210.867 238.408L211.272 241.453L231.098 238.818L230.693 235.772L210.867 238.408Z" fill="white" mask="url(#path-1-inside-1_3_175)"/>
<defs>
<linearGradient id="paint0_linear_3_175" x1="300.583" y1="706.79" x2="418.855" y2="-106.17" gradientUnits="userSpaceOnUse">
<stop offset="0.329574" stop-color="#272933"/>
<stop offset="1" stop-color="#FF5912"/>
</linearGradient>
</defs>
</svg>
