<svg width="767" height="637" viewBox="0 0 767 637" fill="none" xmlns="http://www.w3.org/2000/svg">
<mask id="path-1-inside-1_3_114" fill="white">
<path fill-rule="evenodd" clip-rule="evenodd" d="M220.78 237.09L183.924 254.75C163.097 264.73 138.88 250.036 138.114 226.955L136.573 180.567C135.806 157.486 158.995 141.218 180.437 149.793L210.847 161.954C207.866 129.042 231.362 99.3432 264.429 94.9473L339.988 84.9025C367.607 81.2308 393.393 96.3435 404.474 120.389C408.265 121.108 412.056 122.407 415.751 124.346L448.003 141.271C475.269 155.579 476.821 194.038 450.797 210.497L420.013 229.966C419.897 230.039 419.781 230.111 419.665 230.183C417.028 249.888 405.002 267.111 387.705 276.47L423.533 545.973C427.817 578.197 405.167 607.792 372.944 612.076C340.72 616.36 311.125 593.71 306.841 561.486L271.135 292.905C245.557 288.078 224.803 267.348 221.185 240.136L220.78 237.09Z"/>
</mask>
<path fill-rule="evenodd" clip-rule="evenodd" d="M220.78 237.09L183.924 254.75C163.097 264.73 138.88 250.036 138.114 226.955L136.573 180.567C135.806 157.486 158.995 141.218 180.437 149.793L210.847 161.954C207.866 129.042 231.362 99.3432 264.429 94.9473L339.988 84.9025C367.607 81.2308 393.393 96.3435 404.474 120.389C408.265 121.108 412.056 122.407 415.751 124.346L448.003 141.271C475.269 155.579 476.821 194.038 450.797 210.497L420.013 229.966C419.897 230.039 419.781 230.111 419.665 230.183C417.028 249.888 405.002 267.111 387.705 276.47L423.533 545.973C427.817 578.197 405.167 607.792 372.944 612.076C340.72 616.36 311.125 593.71 306.841 561.486L271.135 292.905C245.557 288.078 224.803 267.348 221.185 240.136L220.78 237.09Z" fill="url(#paint0_linear_3_114)"/>
<path d="M220.78 237.09L230.693 235.772L228.878 222.121L216.459 228.072L220.78 237.09ZM183.924 254.75L188.245 263.769L188.245 263.769L183.924 254.75ZM138.114 226.955L148.108 226.623L148.108 226.623L138.114 226.955ZM136.573 180.567L126.578 180.899L126.578 180.899L136.573 180.567ZM180.437 149.793L176.724 159.078L176.724 159.078L180.437 149.793ZM210.847 161.954L207.134 171.239L222.277 177.295L220.806 161.052L210.847 161.954ZM264.429 94.9473L265.747 104.86L265.747 104.86L264.429 94.9473ZM339.988 84.9025L338.67 74.9897L338.67 74.9897L339.988 84.9025ZM404.474 120.389L395.392 124.574L397.548 129.253L402.61 130.214L404.474 120.389ZM415.751 124.346L420.397 115.491L420.397 115.491L415.751 124.346ZM448.003 141.271L443.357 150.126L443.357 150.126L448.003 141.271ZM450.797 210.497L445.452 202.045L445.452 202.045L450.797 210.497ZM420.013 229.966L425.357 238.418L425.358 238.417L420.013 229.966ZM419.665 230.183L414.402 221.681L410.381 224.17L409.754 228.857L419.665 230.183ZM387.705 276.47L382.946 267.675L376.884 270.955L377.792 277.788L387.705 276.47ZM423.533 545.973L433.446 544.655L433.446 544.655L423.533 545.973ZM372.944 612.076L371.626 602.163L371.626 602.163L372.944 612.076ZM306.841 561.486L316.754 560.168L316.754 560.168L306.841 561.486ZM271.135 292.905L281.048 291.587L280.095 284.419L272.99 283.078L271.135 292.905ZM221.185 240.136L231.098 238.818L231.098 238.818L221.185 240.136ZM216.459 228.072L179.603 245.732L188.245 263.769L225.101 246.108L216.459 228.072ZM179.603 245.732C165.285 252.593 148.635 242.491 148.108 226.623L128.119 227.287C129.126 257.58 160.91 276.866 188.245 263.769L179.603 245.732ZM148.108 226.623L146.567 180.235L126.578 180.899L128.119 227.287L148.108 226.623ZM146.567 180.235C146.04 164.367 161.982 153.182 176.724 159.078L184.151 140.508C156.007 129.253 125.572 150.606 126.578 180.899L146.567 180.235ZM176.724 159.078L207.134 171.239L214.56 152.669L184.151 140.508L176.724 159.078ZM263.111 85.0345C224.709 90.1398 197.426 124.628 200.888 162.856L220.806 161.052C218.307 133.456 238.016 108.547 265.747 104.86L263.111 85.0345ZM338.67 74.9897L263.111 85.0345L265.747 104.86L341.305 94.8153L338.67 74.9897ZM413.556 116.204C400.692 88.2881 370.759 70.7238 338.67 74.9897L341.305 94.8153C364.455 91.7378 386.095 104.399 395.392 124.574L413.556 116.204ZM420.397 115.491C415.83 113.094 411.101 111.468 406.338 110.564L402.61 130.214C405.428 130.749 408.282 131.72 411.104 133.2L420.397 115.491ZM452.65 132.416L420.397 115.491L411.104 133.2L443.357 150.126L452.65 132.416ZM456.142 218.948C488.672 198.375 486.732 150.301 452.65 132.416L443.357 150.126C463.806 160.857 464.97 189.701 445.452 202.045L456.142 218.948ZM425.358 238.417L456.142 218.948L445.452 202.045L414.668 221.514L425.358 238.417ZM424.929 238.686C425.072 238.597 425.214 238.508 425.357 238.418L414.669 221.514C414.58 221.57 414.491 221.625 414.402 221.681L424.929 238.686ZM392.464 285.265C412.55 274.397 426.512 254.412 429.577 231.51L409.754 228.857C407.545 245.365 397.454 259.826 382.946 267.675L392.464 285.265ZM433.446 544.655L397.618 275.152L377.792 277.788L413.62 547.291L433.446 544.655ZM374.261 621.989C411.96 616.977 438.458 582.354 433.446 544.655L413.62 547.291C417.176 574.04 398.375 598.607 371.626 602.163L374.261 621.989ZM296.928 562.804C301.94 600.502 336.563 627 374.261 621.989L371.626 602.163C344.877 605.719 320.31 586.917 316.754 560.168L296.928 562.804ZM261.223 294.222L296.928 562.804L316.754 560.168L281.048 291.587L261.223 294.222ZM211.272 241.453C215.475 273.07 239.588 297.129 269.281 302.731L272.99 283.078C251.525 279.028 234.13 261.626 231.098 238.818L211.272 241.453ZM210.867 238.408L211.272 241.453L231.098 238.818L230.693 235.772L210.867 238.408Z" fill="white" mask="url(#path-1-inside-1_3_114)"/>
<path d="M702.685 267.333L702.685 267.33C702.685 266.554 702.88 265.513 703.71 264.683C704.539 263.854 705.58 263.658 706.356 263.658H715.291C719.091 263.658 722.525 265.922 724.023 269.414L733.668 291.91C735.608 296.436 742.365 295.004 742.303 290.08L742.016 267.361L742.016 267.346V267.33C742.016 266.472 742.27 265.395 743.184 264.582C744.042 263.82 745.077 263.658 745.834 263.658H760.702C761.605 263.658 762.646 263.997 763.361 264.951C763.975 265.769 764.081 266.698 764.081 267.329L764.081 267.326L761.581 267.33H764.081L702.685 267.333ZM702.685 267.333L702.831 369.503L702.685 267.333Z" fill="#692D2D" stroke="white" stroke-width="5"/>
<path d="M671.19 369.796V369.792L671.337 266.744C671.337 266.743 671.337 266.742 671.337 266.742L671.337 266.74L673.837 266.744C673.837 266.353 674.032 266.158 674.423 266.158H691.269C691.659 266.158 691.854 266.353 691.854 266.744L671.19 369.796ZM671.19 369.796C671.19 370.425 671.349 371.356 672.106 372.113C672.862 372.869 673.793 373.028 674.423 373.028H691.415C692.162 373.028 693.118 372.767 693.807 371.907C694.41 371.153 694.501 370.307 694.501 369.796L694.501 369.792L694.354 266.744C694.354 266.743 694.354 266.742 694.354 266.74L671.19 369.796Z" fill="#692D2D" stroke="white" stroke-width="5"/>
<path d="M645.932 373.028C646.665 373.028 647.38 372.804 647.981 372.387C648.538 372.03 649.205 371.404 649.456 370.402L649.478 370.313L649.494 370.223L667.355 267.225C667.489 266.575 667.51 265.451 666.596 264.537C665.778 263.719 664.754 263.658 664.315 263.658H647.616C646.998 263.658 646.245 263.819 645.578 264.352C644.92 264.879 644.602 265.565 644.458 266.137L644.427 266.261L644.409 266.388L641.597 285.948C640.857 291.094 633.428 291.094 632.688 285.948L629.876 266.388L629.858 266.261L629.827 266.137C629.684 265.565 629.366 264.879 628.707 264.352C628.04 263.819 627.287 263.658 626.669 263.658H613.119C612.566 263.658 611.834 263.766 611.146 264.224C610.408 264.716 609.991 265.432 609.815 266.137L609.785 266.259L609.766 266.383L606.91 285.958C606.159 291.102 598.73 291.086 598.001 285.939L595.233 266.393L595.215 266.264L595.183 266.137C595.04 265.565 594.722 264.879 594.063 264.352C593.397 263.819 592.643 263.658 592.025 263.658H575.18C574.674 263.658 573.549 263.775 572.777 264.804C572.085 265.727 572.179 266.722 572.287 267.232L589.99 370.153C590.063 370.724 590.286 371.482 590.917 372.113C591.627 372.823 592.504 373.028 593.197 373.028H611.361C612.054 373.028 612.932 372.823 613.642 372.113C614.29 371.465 614.508 370.683 614.575 370.107L615.288 365.062C616.018 359.906 623.462 359.901 624.199 365.056L624.808 369.318C624.81 369.33 624.812 369.35 624.815 369.377C624.839 369.565 624.903 370.086 625.031 370.523C625.197 371.088 625.606 372.06 626.677 372.652C627.114 372.893 627.611 373.028 628.134 373.028H645.932Z" fill="#692D2D" stroke="white" stroke-width="5"/>
<path d="M539.318 372.881L539.305 372.881L512.425 373.028L512.411 373.028C511.782 373.028 510.85 372.869 510.094 372.113C509.338 371.356 509.179 370.425 509.179 369.796V369.788L509.472 266.744C509.472 266.742 509.472 266.741 509.472 266.739L509.472 266.737L511.972 266.744C511.972 266.353 512.167 266.158 512.558 266.158L539.318 372.881ZM539.318 372.881L539.332 372.881C545.638 372.777 551.368 371.234 556.461 368.21L556.469 368.205L556.477 368.2C561.518 365.155 565.569 361.075 568.61 355.991L568.617 355.978L568.625 355.965C571.639 350.782 573.139 345.072 573.139 338.887V295.821C573.139 289.874 571.66 284.4 568.687 279.457C565.79 274.511 561.878 270.572 556.975 267.671C552.058 264.733 546.567 263.358 540.57 263.512L512.549 263.658L539.318 372.881ZM540.644 286.455L540.665 286.455L540.685 286.455C543.18 286.379 545.297 287.232 547.173 289.148L547.182 289.157L547.191 289.166C549.089 291.064 549.975 293.196 549.975 295.674V338.887C549.975 341.843 548.964 344.316 546.881 346.438C544.825 348.534 542.348 349.571 539.291 349.571H537.004C534.515 349.571 532.499 347.55 532.504 345.061L532.621 290.995C532.626 288.539 534.601 286.54 537.058 286.506L540.644 286.455Z" fill="#692D2D" stroke="white" stroke-width="5"/>
<path d="M446.19 369.796V369.792L446.337 266.744C446.337 266.743 446.337 266.742 446.337 266.742L446.337 266.74L448.837 266.744C448.837 266.353 449.032 266.158 449.423 266.158H497.616C498.007 266.158 498.202 266.402 498.202 266.89V283.663C498.202 284.053 498.007 284.249 497.616 284.249H473.854C469.988 284.249 466.854 287.383 466.854 291.249V300.686C466.854 304.552 469.988 307.686 473.854 307.686H497.616C498.007 307.686 498.202 307.881 498.202 308.272L446.19 369.796ZM446.19 369.796C446.19 370.307 446.282 371.153 446.885 371.907C447.573 372.767 448.529 373.028 449.276 373.028H497.763C498.343 373.028 499.238 372.881 499.97 372.149C500.702 371.417 500.849 370.523 500.849 369.942V352.803C500.849 352.292 500.757 351.446 500.154 350.692C499.466 349.832 498.51 349.571 497.763 349.571H473.854C471.369 349.571 469.354 347.556 469.354 345.071V332.85C469.354 330.365 471.369 328.35 473.854 328.35H497.763C498.343 328.35 499.238 328.203 499.97 327.472C500.702 326.74 500.849 325.845 500.849 325.264V325.254L500.849 325.243L500.702 308.258L446.19 369.796Z" fill="#692D2D" stroke="white" stroke-width="5"/>
<path d="M709.569 487.85V487.847L709.716 384.798C709.716 384.798 709.716 384.797 709.716 384.796L709.716 384.795L712.216 384.798C712.216 384.408 712.411 384.213 712.802 384.213H760.995C761.386 384.213 761.581 384.457 761.581 384.945V401.717C761.581 402.108 761.386 402.303 760.995 402.303H737.233C733.367 402.303 730.233 405.437 730.233 409.303V418.741C730.233 422.607 733.367 425.741 737.233 425.741H760.995C761.386 425.741 761.581 425.936 761.581 426.327L709.569 487.85ZM709.569 487.85C709.569 488.361 709.661 489.208 710.264 489.961C710.952 490.822 711.908 491.083 712.655 491.083H761.142C761.722 491.083 762.617 490.936 763.349 490.204C764.081 489.472 764.228 488.577 764.228 487.997V470.858C764.228 470.347 764.136 469.501 763.533 468.747C762.845 467.887 761.889 467.626 761.142 467.626H737.233C734.748 467.626 732.733 465.611 732.733 463.126V450.905C732.733 448.42 734.748 446.405 737.233 446.405H761.142C761.722 446.405 762.617 446.258 763.349 445.526C764.081 444.794 764.228 443.9 764.228 443.319V443.308L764.227 443.297L764.081 426.312L709.569 487.85Z" fill="#692D2D" stroke="white" stroke-width="5"/>
<path d="M644.575 476.435L644.58 476.443L644.585 476.452C647.473 481.334 651.299 485.245 656.048 488.149C660.812 491.092 666.153 492.547 672.006 492.547C677.949 492.547 683.362 491.095 688.178 488.152C692.93 485.248 696.758 481.336 699.646 476.452L699.651 476.443L699.656 476.435C702.53 471.486 703.949 465.969 703.949 459.945V435.043C703.949 434.531 703.858 433.685 703.255 432.932C702.567 432.071 701.61 431.81 700.863 431.81H672.812C672.213 431.81 671.298 431.941 670.526 432.643C669.708 433.387 669.506 434.348 669.506 435.043V451.815C669.506 452.509 669.708 453.471 670.526 454.214C671.298 454.917 672.213 455.047 672.812 455.047H676.285C678.77 455.047 680.785 457.062 680.785 459.547V459.945C680.785 462.725 679.922 464.964 678.229 466.815C676.568 468.585 674.552 469.457 672.006 469.457C669.78 469.457 667.838 468.618 666.075 466.74C664.31 464.815 663.446 462.591 663.446 459.945V412.411C663.446 409.837 664.318 407.638 666.138 405.699C667.984 403.733 669.914 402.899 672.006 402.899C674.485 402.899 676.485 403.815 678.17 405.767C679.866 407.733 680.785 410.273 680.785 413.583V419.296C680.785 419.876 680.932 420.771 681.664 421.503C682.396 422.235 683.29 422.381 683.871 422.381H700.717C701.228 422.381 702.074 422.29 702.828 421.687C703.688 420.999 703.949 420.043 703.949 419.296V412.411C703.949 406.39 702.531 400.896 699.655 395.993C696.857 391.138 693.042 387.246 688.24 384.343L688.232 384.338L688.223 384.333C683.367 381.452 677.941 380.028 672.006 380.028C666.278 380.028 660.969 381.519 656.129 384.495C651.331 387.397 647.499 391.31 644.657 396.2C641.734 401.094 640.282 406.517 640.282 412.411V459.945C640.282 465.969 641.702 471.486 644.575 476.435Z" fill="#692D2D" stroke="white" stroke-width="5"/>
<path d="M572.46 385.388L572.46 385.384C572.46 384.608 572.656 383.567 573.485 382.738C574.315 381.908 575.356 381.713 576.132 381.713H585.067C588.866 381.713 592.301 383.977 593.798 387.469L603.443 409.965C605.384 414.491 612.141 413.059 612.078 408.134L611.791 385.416L611.791 385.4V385.384C611.791 384.527 612.046 383.449 612.96 382.637C613.818 381.874 614.852 381.713 615.609 381.713H630.478C631.38 381.713 632.421 382.051 633.137 383.005C633.751 383.824 633.856 384.752 633.856 385.383L633.856 385.381L631.356 385.384H633.856L572.46 385.388ZM572.46 385.388L572.606 487.557L572.46 385.388Z" fill="#692D2D" stroke="white" stroke-width="5"/>
<path d="M522.071 384.192L522.051 384.273L522.036 384.354L503.544 486.789C503.539 486.814 503.533 486.845 503.522 486.901L503.52 486.911C503.51 486.96 503.497 487.028 503.483 487.099C503.456 487.246 503.416 487.482 503.403 487.752C503.377 488.269 503.431 489.316 504.288 490.188C504.974 490.886 505.825 491.083 506.479 491.083H523.178C523.871 491.083 524.748 490.877 525.458 490.167C526.103 489.522 526.322 488.745 526.39 488.17L527.117 483.211C527.441 481.001 529.337 479.364 531.57 479.364H539.908C542.141 479.364 544.036 481.001 544.36 483.211L545.088 488.171C545.163 488.801 545.419 489.609 546.124 490.249C546.857 490.916 547.725 491.083 548.373 491.083H564.999C565.654 491.083 566.684 490.89 567.427 489.961C568.113 489.104 568.126 488.138 568.073 487.601L568.064 487.512L568.048 487.423L550.177 384.371L550.161 384.281L550.139 384.192C549.996 383.62 549.678 382.934 549.019 382.407C548.353 381.874 547.6 381.713 546.981 381.713H525.229C524.61 381.713 523.857 381.874 523.191 382.407C522.532 382.934 522.214 383.62 522.071 384.192ZM535.997 418.827L535.263 418.71L536.112 418.81L535.997 418.827ZM536.027 418.832L536.142 418.814L536.828 418.895L536.838 418.962L536.027 418.832ZM532.141 454.046L535.954 430.21L539.444 454.096C539.769 456.325 538.041 458.324 535.788 458.324C533.515 458.324 531.782 456.291 532.141 454.046Z" fill="#692D2D" stroke="white" stroke-width="5"/>
<path d="M454.08 488.242L454.09 488.248L502.021 385.091H499.521L502.021 385.087L502.021 385.088C502.02 384.576 501.928 383.732 501.326 382.98C500.638 382.12 499.682 381.859 498.935 381.859H482.089C481.508 381.859 480.614 382.006 479.882 382.738C479.15 383.47 479.003 384.364 479.003 384.945V459.505C479.003 462.155 478.135 464.481 476.324 466.576C474.552 468.581 472.602 469.457 470.37 469.457C467.764 469.457 465.765 468.578 464.167 466.837C462.55 465.027 461.664 462.654 461.664 459.505V452.767C461.664 452.27 461.587 451.445 461.039 450.693C460.384 449.792 459.413 449.462 458.578 449.462H441.586C441.005 449.462 440.111 449.608 439.379 450.34C438.647 451.072 438.5 451.967 438.5 452.547V459.505C438.5 465.649 439.857 471.288 442.61 476.37L442.618 476.384L442.625 476.397C445.422 481.41 449.246 485.374 454.08 488.242Z" fill="#692D2D" stroke="white" stroke-width="5"/>
<defs>
<linearGradient id="paint0_linear_3_114" x1="300.583" y1="706.79" x2="418.855" y2="-106.17" gradientUnits="userSpaceOnUse">
<stop offset="0.329574" stop-color="#272933"/>
<stop offset="1" stop-color="#FF5912"/>
</linearGradient>
</defs>
</svg>
