<svg width="762" height="637" viewBox="0 0 762 637" fill="none" xmlns="http://www.w3.org/2000/svg">
<mask id="path-1-inside-1_3_112" fill="white">
<path fill-rule="evenodd" clip-rule="evenodd" d="M220.78 237.09L183.924 254.75C163.097 264.73 138.88 250.036 138.114 226.955L136.573 180.567C135.806 157.486 158.995 141.218 180.437 149.793L210.847 161.954C207.866 129.042 231.362 99.3432 264.429 94.9473L339.988 84.9025C367.607 81.2308 393.393 96.3435 404.474 120.389C408.265 121.108 412.056 122.407 415.751 124.346L448.003 141.271C475.269 155.579 476.821 194.038 450.797 210.497L420.013 229.966C419.897 230.039 419.781 230.111 419.665 230.183C417.028 249.888 405.002 267.111 387.705 276.47L423.533 545.973C427.817 578.197 405.167 607.792 372.944 612.076C340.72 616.36 311.125 593.71 306.841 561.486L271.135 292.905C245.557 288.078 224.803 267.348 221.185 240.136L220.78 237.09Z"/>
</mask>
<path fill-rule="evenodd" clip-rule="evenodd" d="M220.78 237.09L183.924 254.75C163.097 264.73 138.88 250.036 138.114 226.955L136.573 180.567C135.806 157.486 158.995 141.218 180.437 149.793L210.847 161.954C207.866 129.042 231.362 99.3432 264.429 94.9473L339.988 84.9025C367.607 81.2308 393.393 96.3435 404.474 120.389C408.265 121.108 412.056 122.407 415.751 124.346L448.003 141.271C475.269 155.579 476.821 194.038 450.797 210.497L420.013 229.966C419.897 230.039 419.781 230.111 419.665 230.183C417.028 249.888 405.002 267.111 387.705 276.47L423.533 545.973C427.817 578.197 405.167 607.792 372.944 612.076C340.72 616.36 311.125 593.71 306.841 561.486L271.135 292.905C245.557 288.078 224.803 267.348 221.185 240.136L220.78 237.09Z" fill="url(#paint0_linear_3_112)"/>
<path d="M220.78 237.09L230.693 235.772L228.878 222.121L216.459 228.072L220.78 237.09ZM183.924 254.75L188.245 263.769L188.245 263.769L183.924 254.75ZM138.114 226.955L148.108 226.623L148.108 226.623L138.114 226.955ZM136.573 180.567L126.578 180.899L126.578 180.899L136.573 180.567ZM180.437 149.793L176.724 159.078L176.724 159.078L180.437 149.793ZM210.847 161.954L207.134 171.239L222.277 177.295L220.806 161.052L210.847 161.954ZM264.429 94.9473L265.747 104.86L265.747 104.86L264.429 94.9473ZM339.988 84.9025L338.67 74.9897L338.67 74.9897L339.988 84.9025ZM404.474 120.389L395.392 124.574L397.548 129.253L402.61 130.214L404.474 120.389ZM415.751 124.346L420.397 115.491L420.397 115.491L415.751 124.346ZM448.003 141.271L443.357 150.126L443.357 150.126L448.003 141.271ZM450.797 210.497L445.452 202.045L445.452 202.045L450.797 210.497ZM420.013 229.966L425.357 238.418L425.358 238.417L420.013 229.966ZM419.665 230.183L414.402 221.681L410.381 224.17L409.754 228.857L419.665 230.183ZM387.705 276.47L382.946 267.675L376.884 270.955L377.792 277.788L387.705 276.47ZM423.533 545.973L433.446 544.655L433.446 544.655L423.533 545.973ZM372.944 612.076L371.626 602.163L371.626 602.163L372.944 612.076ZM306.841 561.486L316.754 560.168L316.754 560.168L306.841 561.486ZM271.135 292.905L281.048 291.587L280.095 284.419L272.99 283.078L271.135 292.905ZM221.185 240.136L231.098 238.818L231.098 238.818L221.185 240.136ZM216.459 228.072L179.603 245.732L188.245 263.769L225.101 246.108L216.459 228.072ZM179.603 245.732C165.285 252.593 148.635 242.491 148.108 226.623L128.119 227.287C129.126 257.58 160.91 276.866 188.245 263.769L179.603 245.732ZM148.108 226.623L146.567 180.235L126.578 180.899L128.119 227.287L148.108 226.623ZM146.567 180.235C146.04 164.367 161.982 153.182 176.724 159.078L184.151 140.508C156.007 129.253 125.572 150.606 126.578 180.899L146.567 180.235ZM176.724 159.078L207.134 171.239L214.56 152.669L184.151 140.508L176.724 159.078ZM263.111 85.0345C224.709 90.1398 197.426 124.628 200.888 162.856L220.806 161.052C218.307 133.456 238.016 108.547 265.747 104.86L263.111 85.0345ZM338.67 74.9897L263.111 85.0345L265.747 104.86L341.305 94.8153L338.67 74.9897ZM413.556 116.204C400.692 88.2881 370.759 70.7238 338.67 74.9897L341.305 94.8153C364.455 91.7378 386.095 104.399 395.392 124.574L413.556 116.204ZM420.397 115.491C415.83 113.094 411.101 111.468 406.338 110.564L402.61 130.214C405.428 130.749 408.282 131.72 411.104 133.2L420.397 115.491ZM452.65 132.416L420.397 115.491L411.104 133.2L443.357 150.126L452.65 132.416ZM456.142 218.948C488.672 198.375 486.732 150.301 452.65 132.416L443.357 150.126C463.806 160.857 464.97 189.701 445.452 202.045L456.142 218.948ZM425.358 238.417L456.142 218.948L445.452 202.045L414.668 221.514L425.358 238.417ZM424.929 238.686C425.072 238.597 425.214 238.508 425.357 238.418L414.669 221.514C414.58 221.57 414.491 221.625 414.402 221.681L424.929 238.686ZM392.464 285.265C412.55 274.397 426.512 254.412 429.577 231.51L409.754 228.857C407.545 245.365 397.454 259.826 382.946 267.675L392.464 285.265ZM433.446 544.655L397.618 275.152L377.792 277.788L413.62 547.291L433.446 544.655ZM374.261 621.989C411.96 616.977 438.458 582.354 433.446 544.655L413.62 547.291C417.176 574.04 398.375 598.607 371.626 602.163L374.261 621.989ZM296.928 562.804C301.94 600.502 336.563 627 374.261 621.989L371.626 602.163C344.877 605.719 320.31 586.917 316.754 560.168L296.928 562.804ZM261.223 294.222L296.928 562.804L316.754 560.168L281.048 291.587L261.223 294.222ZM211.272 241.453C215.475 273.07 239.588 297.129 269.281 302.731L272.99 283.078C251.525 279.028 234.13 261.626 231.098 238.818L211.272 241.453ZM210.867 238.408L211.272 241.453L231.098 238.818L230.693 235.772L210.867 238.408Z" fill="white" mask="url(#path-1-inside-1_3_112)"/>
<path d="M721.518 370.528H706.503C705.722 370.528 705.331 370.186 705.331 369.503L705.185 267.33C705.185 266.548 705.575 266.158 706.356 266.158H715.291C718.091 266.158 720.622 267.826 721.725 270.399L731.37 292.895C734.389 299.936 744.9 297.708 744.803 290.048L744.516 267.33C744.516 266.548 744.955 266.158 745.834 266.158H760.702C761.288 266.158 761.581 266.548 761.581 267.33L761.728 369.649C761.728 370.235 761.483 370.528 760.995 370.528H752.253C749.542 370.528 747.074 368.963 745.92 366.51L735.81 345.038C732.592 338.203 722.325 340.608 722.478 348.162L722.909 369.356C722.909 370.137 722.445 370.528 721.518 370.528Z" fill="white"/>
<path d="M691.415 370.528H674.423C673.935 370.528 673.69 370.284 673.69 369.796L673.837 266.744C673.837 266.353 674.032 266.158 674.423 266.158H691.269C691.659 266.158 691.854 266.353 691.854 266.744L692.001 369.796C692.001 370.284 691.806 370.528 691.415 370.528Z" fill="white"/>
<path d="M611.361 370.528H593.197C592.758 370.528 592.514 370.284 592.465 369.796L574.74 266.744C574.643 266.353 574.789 266.158 575.18 266.158H592.025C592.416 266.158 592.66 266.353 592.758 266.744L595.526 286.289C596.66 294.297 608.215 294.321 609.383 286.319L612.24 266.744C612.338 266.353 612.631 266.158 613.119 266.158H626.669C627.06 266.158 627.304 266.353 627.401 266.744L630.214 286.304C631.365 294.309 642.92 294.309 644.071 286.304L646.884 266.744C646.981 266.353 647.226 266.158 647.616 266.158H664.315C664.804 266.158 664.999 266.353 664.901 266.744L647.03 369.796C646.981 369.991 646.835 370.162 646.591 370.308V370.308C646.401 370.451 646.169 370.528 645.932 370.528H628.134C628.046 370.528 627.963 370.506 627.885 370.463C627.397 370.193 627.362 369.517 627.283 368.965L626.674 364.702C625.528 356.683 613.948 356.691 612.813 364.711L612.094 369.796C612.045 370.284 611.801 370.528 611.361 370.528Z" fill="white"/>
<path d="M539.291 370.381L512.411 370.528C511.923 370.528 511.679 370.284 511.679 369.796L511.972 266.744C511.972 266.353 512.167 266.158 512.558 266.158L540.609 266.011C546.176 265.865 551.205 267.134 555.697 269.82C560.238 272.506 563.852 276.143 566.537 280.733C569.271 285.274 570.639 290.303 570.639 295.821V338.887C570.639 344.649 569.247 349.923 566.464 354.708C563.632 359.444 559.872 363.228 555.185 366.06C550.497 368.843 545.199 370.284 539.291 370.381ZM540.609 283.956L537.023 284.006C533.201 284.059 530.129 287.168 530.121 290.99L530.004 345.056C529.996 348.928 533.132 352.071 537.004 352.071H539.291C543.002 352.071 546.127 350.777 548.666 348.189C551.205 345.601 552.475 342.501 552.475 338.887V295.674C552.475 292.501 551.303 289.742 548.959 287.398C546.615 285.006 543.832 283.858 540.609 283.956Z" fill="white"/>
<path d="M497.763 370.528H449.276C448.886 370.528 448.69 370.284 448.69 369.796L448.837 266.744C448.837 266.353 449.032 266.158 449.423 266.158H497.616C498.007 266.158 498.202 266.402 498.202 266.89V283.663C498.202 284.053 498.007 284.249 497.616 284.249H473.854C469.988 284.249 466.854 287.383 466.854 291.249V300.686C466.854 304.552 469.988 307.686 473.854 307.686H497.616C498.007 307.686 498.202 307.881 498.202 308.272L498.349 325.264C498.349 325.655 498.153 325.85 497.763 325.85H473.854C469.988 325.85 466.854 328.984 466.854 332.85V345.071C466.854 348.937 469.988 352.071 473.854 352.071H497.763C498.153 352.071 498.349 352.315 498.349 352.803V369.942C498.349 370.333 498.153 370.528 497.763 370.528Z" fill="white"/>
<path d="M761.142 488.583H712.655C712.265 488.583 712.069 488.339 712.069 487.85L712.216 384.798C712.216 384.408 712.411 384.213 712.802 384.213H760.995C761.386 384.213 761.581 384.457 761.581 384.945V401.717C761.581 402.108 761.386 402.303 760.995 402.303H737.233C733.367 402.303 730.233 405.437 730.233 409.303V418.741C730.233 422.607 733.367 425.741 737.233 425.741H760.995C761.386 425.741 761.581 425.936 761.581 426.327L761.728 443.319C761.728 443.71 761.532 443.905 761.142 443.905H737.233C733.367 443.905 730.233 447.039 730.233 450.905V463.126C730.233 466.992 733.367 470.126 737.233 470.126H761.142C761.532 470.126 761.728 470.37 761.728 470.858V487.997C761.728 488.387 761.532 488.583 761.142 488.583Z" fill="white"/>
<path d="M672.006 490.047C666.586 490.047 661.703 488.705 657.357 486.019C652.963 483.334 649.423 479.72 646.737 475.179C644.101 470.638 642.782 465.56 642.782 459.945V412.411C642.782 406.942 644.125 401.962 646.811 397.469C649.447 392.928 652.987 389.315 657.431 386.63C661.874 383.895 666.732 382.528 672.006 382.528C677.523 382.528 682.504 383.846 686.947 386.483C691.391 389.169 694.906 392.757 697.494 397.25C700.131 401.742 701.449 406.796 701.449 412.411V419.296C701.449 419.686 701.205 419.881 700.717 419.881H683.871C683.48 419.881 683.285 419.686 683.285 419.296V413.583C683.285 409.774 682.211 406.625 680.062 404.134C677.914 401.644 675.229 400.399 672.006 400.399C669.125 400.399 666.562 401.595 664.315 403.988C662.069 406.38 660.946 409.188 660.946 412.411V459.945C660.946 463.216 662.045 466.048 664.242 468.441C666.439 470.785 669.027 471.957 672.006 471.957C675.229 471.957 677.914 470.809 680.062 468.514C682.211 466.171 683.285 463.314 683.285 459.945V459.547C683.285 455.681 680.151 452.547 676.285 452.547H672.812C672.274 452.547 672.006 452.303 672.006 451.815V435.043C672.006 434.554 672.274 434.31 672.812 434.31H700.863C701.254 434.31 701.449 434.554 701.449 435.043V459.945C701.449 465.56 700.131 470.638 697.494 475.179C694.809 479.72 691.269 483.334 686.874 486.019C682.479 488.705 677.523 490.047 672.006 490.047Z" fill="white"/>
<path d="M591.293 488.583H576.278C575.497 488.583 575.106 488.241 575.106 487.557L574.96 385.384C574.96 384.603 575.351 384.213 576.132 384.213H585.067C587.866 384.213 590.397 385.881 591.5 388.454L601.145 410.95C604.164 417.991 614.675 415.763 614.578 408.103L614.291 385.384C614.291 384.603 614.73 384.213 615.609 384.213H630.478C631.063 384.213 631.356 384.603 631.356 385.384L631.503 487.704C631.503 488.29 631.259 488.583 630.771 488.583H622.028C619.317 488.583 616.85 487.017 615.695 484.564L605.585 463.092C602.367 456.257 592.1 458.663 592.254 466.216L592.685 487.411C592.685 488.192 592.221 488.583 591.293 488.583Z" fill="white"/>
<path d="M506.071 488.435C505.778 488.138 505.93 487.644 506.004 487.233L524.496 384.798C524.594 384.408 524.838 384.213 525.229 384.213H546.981C547.372 384.213 547.616 384.408 547.714 384.798L565.585 487.85C565.634 488.339 565.438 488.583 564.999 488.583H548.373C547.885 488.583 547.616 488.339 547.567 487.85L546.834 482.848C546.33 479.411 543.381 476.864 539.908 476.864H531.57C528.096 476.864 525.148 479.411 524.644 482.848L523.91 487.85C523.861 488.339 523.617 488.583 523.178 488.583H506.479C506.303 488.583 506.167 488.534 506.071 488.435ZM535.263 418.71L529.672 453.651C529.07 457.415 531.977 460.824 535.788 460.824V460.824C539.566 460.824 542.463 457.472 541.917 453.734L536.801 418.71V418.71C536.661 417.821 535.368 417.816 535.263 418.71V418.71Z" fill="white"/>
<path d="M470.37 490.047C464.853 490.047 459.848 488.729 455.355 486.092C450.912 483.456 447.396 479.818 444.809 475.179C442.27 470.492 441 465.267 441 459.505V452.547C441 452.157 441.195 451.962 441.586 451.962H458.578C458.969 451.962 459.164 452.23 459.164 452.767V459.505C459.164 463.168 460.214 466.171 462.313 468.514C464.413 470.809 467.099 471.957 470.37 471.957C473.397 471.957 476.01 470.712 478.207 468.221C480.404 465.682 481.503 462.777 481.503 459.505V384.945C481.503 384.554 481.698 384.359 482.089 384.359H498.935C499.325 384.359 499.521 384.603 499.521 385.091L499.667 459.505C499.667 464.974 498.349 470.028 495.712 474.667C493.026 479.354 489.486 483.089 485.092 485.873C480.697 488.656 475.79 490.047 470.37 490.047Z" fill="white"/>
<defs>
<linearGradient id="paint0_linear_3_112" x1="300.583" y1="706.79" x2="418.855" y2="-106.17" gradientUnits="userSpaceOnUse">
<stop offset="0.329574" stop-color="#272933"/>
<stop offset="1" stop-color="#FF5912"/>
</linearGradient>
</defs>
</svg>
